<?xml version="1.0" encoding="utf-8"?>
<!-- Generator: Adobe Illustrator 22.1.0, SVG Export Plug-In . SVG Version: 6.00 Build 0)  -->
<svg version="1.1" id="Layer_1" xmlns="http://www.w3.org/2000/svg" xmlns:xlink="http://www.w3.org/1999/xlink" x="0px" y="0px"
	 viewBox="0 0 167 33.6" style="enable-background:new 0 0 167 33.6;" xml:space="preserve">
<style type="text/css">
  .st0{fill:#FFFFFF;}
  .st1{fill:url(#Rounded_Rectangle_14_copy_1_);}
  .st2{fill:#CEE83D;}
</style>
	<path id="Rounded_Rectangle_14" class="st0" d="M8.1,11.1l11.6,3.1c2.1,0.6,3.4,2.8,2.8,4.9l0,0l-3.1,11.6c-0.6,2.1-2.8,3.4-4.9,2.8
  L3,30.5c-2.1-0.6-3.4-2.8-2.8-4.9l0,0l3-11.6C3.8,11.8,6,10.6,8.1,11.1z"/>
	<linearGradient id="Rounded_Rectangle_14_copy_1_" gradientUnits="userSpaceOnUse" x1="28.35" y1="12.529" x2="28.35" y2="35.1226" gradientTransform="matrix(1 0 0 -1 0 35)">
  <stop  offset="0" style="stop-color:#D1EA41"/>
		<stop  offset="1" style="stop-color:#E9F441"/>
</linearGradient>
	<path id="Rounded_Rectangle_14_copy" class="st1" d="M25.1,0.1l11.6,3.1c2.1,0.6,3.4,2.8,2.8,4.9l0,0l-3.1,11.6
  c-0.6,2.1-2.8,3.4-4.9,2.8l-11.5-3c-2.1-0.6-3.4-2.8-2.8-4.9l0,0l3-11.6C20.8,0.8,23-0.4,25.1,0.1z"/>
	<g>
  <g>
    <path class="st0" d="M56.7,9.9h-5.8v21.8h5.8c2.3,0,3.9-0.6,4.7-1.8c0.8-1.1,1.2-2.5,1.2-4.3V16c0-1.4-0.2-2.5-0.7-3.6
      C61,10.9,59.4,9.9,56.7,9.9z M58.7,25.6c0,1.8-0.5,2.8-2,2.8h-2.1V13.2h2.1c1.5,0,2,1,2,2.8V25.6z M68.9,31.7h10.3v-3.3h-6.5v-6.2
      h5.4v-3.3h-5.4v-5.8h6.5V9.9H68.9V31.7z M85.5,31.7h3.8v-8.8h5.3v-3.3h-5.3v-6.4h6.5V9.9H85.5V31.7z M101.9,9.9v21.8h3.8V9.9
      H101.9z"/>
  </g>
</g>
	<path class="st2" d="M120.2,23.2V26c0,0.8-0.1,1.3-0.4,1.8s-0.9,0.8-1.7,0.8c-0.7,0-1.3-0.2-1.6-0.6c-0.1-0.2-0.3-0.4-0.3-0.7
  c-0.2-0.5-0.2-0.9-0.2-1.6v-10c0-0.9,0.1-1.4,0.4-2s0.8-0.9,1.7-0.9c0.9,0,1.5,0.3,1.7,0.8c0.3,0.5,0.4,1.1,0.4,1.8v1.2h3.8v-1.2
  c0-1.7-0.3-2.9-1.1-4.1c-0.8-1.2-2.5-1.8-4.8-1.8l0,0c-2.3,0-3.9,0.7-4.7,1.8c-0.8,1.2-1.2,2.5-1.2,4.3v10.1c0,1.8,0.3,3.1,1.1,4.3
  c0.8,1.2,2.5,1.8,4.8,1.8l0,0c3.9,0,5.9-2,5.9-5.9V20h-6v3.2H120.2z"/>
	<path class="st2" d="M134.3,23.2h1.3c1.2-0.1,2.2,0.8,2.4,2.8l0.3,3c0,0.5,0.2,1,0.3,1.5c0.2,0.5,0.3,0.8,0.5,1.1h4
  c-0.5-1-0.8-1.9-0.9-2.6l-0.3-3c-0.1-1.1-0.3-2-0.6-2.5s-0.7-1-1.4-1.4c1.7-1.1,2.5-2.5,2.5-4.3v-2.3c0-4-1.8-5.6-5.9-5.6h-5.9v21.8
  h3.8v-8.5H134.3z M138.5,17.8c0,1.2-0.8,2.1-2.2,2.1h-2v-6.8h2.1c1.5,0,2.1,0.5,2.1,2.3L138.5,17.8L138.5,17.8z"/>
	<path class="st2" d="M151,31.7l0.6-3.9h4.6l0.6,3.9h3.9l-4.2-21.8h-5.1l-4.2,21.8H151z M155.7,24.7h-3.6l1.8-11L155.7,24.7z"/>
	<circle class="st0" cx="165" cy="29" r="1.9"/>
</svg>
