<?xml version="1.0" encoding="utf-8"?>
<!-- Generator: Adobe Illustrator 22.1.0, SVG Export Plug-In . SVG Version: 6.00 Build 0)  -->
<svg version="1.1" id="Layer_1" xmlns="http://www.w3.org/2000/svg" xmlns:xlink="http://www.w3.org/1999/xlink" x="0px" y="0px"
	 viewBox="0 0 28 28" style="enable-background:new 0 0 28 28;" xml:space="preserve">
<style type="text/css">
	.st0{fill:#27C4D0;}
</style>
<g>
	<g>
		<path class="st0" d="M27.8,11.7L27.8,11.7v-0.1c-0.1-0.4-0.5-0.8-0.9-0.8c-0.1,0-0.1,0-0.2,0c-0.5,0.1-0.8,0.6-0.8,1.1l0,0
			c1.1,6.6-3.3,12.8-9.9,14c-0.7,0.1-1.4,0.2-2,0.2c-4.3,0-8.1-2.2-10.3-5.8h0.2c0.1,0,0.1,0,0.2,0C4.6,20.4,5,20,5,19.6
			c0.1-0.5-0.2-1-0.7-1.1L2,18c-0.1,0-0.1,0-0.2,0c-0.5,0-0.8,0.3-0.9,0.8L0.5,21c-0.1,0.5,0.2,1,0.7,1.1c0.1,0,0.1,0,0.2,0l0,0
			c0.4,0,0.7-0.2,0.9-0.5c2.6,4,7,6.4,11.7,6.4l0,0c2.2,0,4.5-0.6,6.5-1.6C25.9,23.6,28.8,17.7,27.8,11.7z M1.2,17.2L1.2,17.2
			c0.1,0,0.1,0,0.2,0c0.5-0.1,0.9-0.6,0.8-1.1C1,9.5,5.4,3.2,11.9,2.1C12.6,2,13.3,1.9,14,1.9c4.3,0,8.1,2.2,10.3,5.8h-0.2
			c-0.1,0-0.1,0-0.2,0C23.4,7.7,23,8,23,8.5c-0.1,0.5,0.2,1,0.7,1.1L26,10c0.1,0,0.1,0,0.2,0c0.5,0,0.8-0.3,0.9-0.8L27.5,7
			c0.1-0.5-0.2-1-0.7-1.1c-0.1,0-0.1,0-0.2,0c-0.4,0-0.7,0.2-0.9,0.5C23.2,2.4,18.8,0,14,0c-2.2,0-4.5,0.6-6.5,1.6C2.9,4,0,8.8,0,14
			c0,0.8,0.1,1.6,0.2,2.4C0.3,16.9,0.7,17.2,1.2,17.2z"/>
	</g>
</g>
</svg>
