<?xml version="1.0" encoding="utf-8"?>
<!-- Generator: Adobe Illustrator 22.1.0, SVG Export Plug-In . SVG Version: 6.00 Build 0)  -->
<svg version="1.1" id="Layer_1" xmlns="http://www.w3.org/2000/svg" xmlns:xlink="http://www.w3.org/1999/xlink" x="0px" y="0px"
	 viewBox="0 0 32 32" style="enable-background:new 0 0 32 32;" xml:space="preserve">
<style type="text/css">
	.st0{fill:#FFA200;}
</style>
<g>
	<g>
		<path class="st0" d="M16,21.9c-0.9,0-1.6,0.8-1.6,1.7c0,0.9,0.7,1.7,1.6,1.7c0.9,0,1.6-0.8,1.6-1.7C17.7,22.6,16.9,21.9,16,21.9z
			 M31.3,22L20.9,3.6c-1-1.9-2.9-3-4.9-3c-2.1,0-3.9,1.1-4.9,2.9L0.8,22c-1,1.9-1,4.1,0,5.9c1,1.8,2.9,2.9,4.9,2.9h20.6
			c2.1,0,3.9-1.1,4.9-3C32.3,26,32.3,23.8,31.3,22z M29,26.5c-0.6,1-1.6,1.6-2.7,1.6H5.7c-1.1,0-2.1-0.6-2.7-1.6
			c-0.6-1-0.6-2.2,0-3.2L13.3,4.9c0.6-1,1.6-1.6,2.7-1.6c1.1,0,2.1,0.6,2.7,1.6L29,23.3C29.6,24.3,29.6,25.5,29,26.5z M15.6,9.9
			c-0.8,0.2-1.3,1-1.3,1.9c0,0.5,0.1,1.1,0.1,1.6c0.1,2,0.2,4,0.3,6.1c0,0.7,0.6,1.2,1.2,1.2c0.7,0,1.2-0.5,1.2-1.2
			c0-0.4,0-0.8,0-1.2c0.1-1.3,0.2-2.6,0.2-3.9c0-0.8,0.1-1.7,0.2-2.5c0-0.3,0-0.6-0.2-0.8C17.2,10.1,16.4,9.7,15.6,9.9z"/>
	</g>
</g>
</svg>
