<?xml version="1.0" encoding="utf-8"?>
<!-- Generator: Adobe Illustrator 22.1.0, SVG Export Plug-In . SVG Version: 6.00 Build 0)  -->
<svg version="1.1" id="Layer_1" xmlns="http://www.w3.org/2000/svg" xmlns:xlink="http://www.w3.org/1999/xlink" x="0px" y="0px"
	 viewBox="0 0 32 32" style="enable-background:new 0 0 32 32;" xml:space="preserve">
<style type="text/css">
	.st0{fill:#F05433;}
</style>
<path class="st0" d="M2.6,31.9c-0.6,0-1.2-0.2-1.6-0.7c-0.4-0.4-0.7-1-0.7-1.6c0-0.6,0.2-1.2,0.7-1.6l11.9-11.9L0.9,4.2
	C0.1,3.3,0.1,1.9,0.9,1c0.4-0.4,1-0.7,1.6-0.7c0.6,0,1.2,0.2,1.6,0.6l11.9,11.9L28,1c0.5-0.5,1-0.7,1.6-0.7c0.6,0,1.2,0.2,1.6,0.7
	c0.9,0.9,0.8,2.4-0.1,3.2L19.3,16.1L31.2,28c0.9,0.9,0.9,2.3,0,3.2c-0.4,0.4-1,0.7-1.6,0.7l0,0c-0.6,0-1.2-0.2-1.6-0.6L16.1,19.4
	L4.2,31.3C3.7,31.7,3.2,31.9,2.6,31.9z"/>
</svg>
