<?xml version="1.0" encoding="utf-8"?>
<!-- Generator: Adobe Illustrator 22.1.0, SVG Export Plug-In . SVG Version: 6.00 Build 0)  -->
<svg version="1.1" id="Layer_1" xmlns="http://www.w3.org/2000/svg" xmlns:xlink="http://www.w3.org/1999/xlink" x="0px" y="0px"
	 viewBox="0 0 16.2 20.6" style="enable-background:new 0 0 16.2 20.6;" xml:space="preserve">
<style type="text/css">
	.st0{fill:#FFFFFF;}
</style>
<g>
	<g>
		<path class="st0" d="M7.7,13.9C8,14,8.2,14,8.5,13.9c1.7-0.9,3.5-1.7,5.2-2.6c0.8-0.4,1.6-0.8,2.5-1.2C13.5,6.7,10.8,3.4,8.1,0
			C5.4,3.4,2.7,6.8,0,10.1c0.5,0.3,0.9,0.5,1.4,0.7C3.5,11.9,5.6,12.9,7.7,13.9z M8.6,15.1c-0.4,0.2-0.7,0.2-1.1,0c-2-1-4-2-6-2.9
			c0-0.1-0.1-0.2-0.3-0.2c0,0,0,0-0.1,0.1C3.4,15,5.7,17.8,8,20.7c2.3-2.9,4.6-5.8,6.9-8.6c0,0,0,0-0.1-0.1
			C12.8,13,10.7,14,8.6,15.1z"/>
	</g>
</g>
</svg>
