<?xml version="1.0" encoding="utf-8"?>
<!-- Generator: Adobe Illustrator 22.1.0, SVG Export Plug-In . SVG Version: 6.00 Build 0)  -->
<svg version="1.1" id="Layer_1" xmlns="http://www.w3.org/2000/svg" xmlns:xlink="http://www.w3.org/1999/xlink" x="0px" y="0px"
	 viewBox="0 0 586 118" style="enable-background:new 0 0 586 118;" xml:space="preserve">
<style type="text/css">
	.st0{fill:#CEE83D;}
	.st1{enable-background:new    ;}
	.st2{fill:#FFFFFF;}
</style>
<g>
	<g>
		<g>
			<path class="st0" d="M57.3,0c-8.2,0-11.5,1-12.8,1.4c-0.6,0.2-0.9,0.4-0.9,1.1c-0.3,7.1-0.6,15.8-13,28.2v0.1l0,0
				C18.3,43.1,9.6,43.2,2.5,43.5c-0.7,0-0.9,0.3-1.1,0.9C1.1,45.8,0,49,0,57.2c0,0,16.2,0,31.3,0.1h0.1l0,0h0.1c0.4,0,0.8,0,1.1,0
				c0.3,0,0.6,0,1-0.1c0.1,0,0.2,0,0.3,0c13-1.3,23.2-12.3,23.2-25.6C57.3,16.2,57.4,0,57.3,0z"/>
		</g>
	</g>
	<g>
		<g>
			<path class="st0" d="M117.6,57.2c0-8.2-1-11.4-1.4-12.8c-0.2-0.6-0.4-0.9-1.1-0.9C108,43.2,99.4,43.1,87,30.8l0,0v-0.1
				C74.7,18.4,74.3,9.6,74,2.5c0-0.7-0.3-0.9-0.9-1.1C71.7,1.1,68.5,0,60.3,0c0,0,0,16.2,0,31.4c0,13.8,10.9,25.1,24.6,25.7
				c0.1,0,0.1,0,0.2,0c0.3,0,0.6,0,1,0h0.1l0,0C101.4,57.2,117.6,57.2,117.6,57.2z"/>
		</g>
	</g>
	<g>
		<g>
			<path class="st0" d="M86.1,60.9H86l0,0c0,0-2.4,0.1-2.5,0.1c-13,1.3-23.2,12.3-23.2,25.6c0,15.2,0,31.4,0,31.4
				c8.2,0,11.5-1,12.8-1.4c0.6-0.2,0.9-0.4,0.9-1.1c0.3-7.1,0.6-15.8,13-28.2v-0.1l0,0c12.3-12.3,21-12.4,28.1-12.7
				c0.7,0,0.9-0.3,1.1-0.9c0.3-1.4,1.4-4.6,1.4-12.8C117.4,60.9,101.2,60.9,86.1,60.9z"/>
		</g>
	</g>
	<g>
		<g>
			<path class="st0" d="M57.1,86.4C57.1,73,46.9,62,33.9,60.8c-0.1,0-0.2,0-0.3,0c-0.3,0-0.6-0.1-0.9-0.1c-0.4,0-0.8,0-1.2,0
				c0,0,0,0-0.1,0l0,0h-0.1C16.1,60.7,0,60.8,0,60.8C0,69,1,72.2,1.4,73.6c0.2,0.6,0.4,0.9,1.1,0.9c7.1,0.3,15.7,0.4,28.1,12.7l0,0
				v0.1c12.3,12.3,12.7,21.1,13,28.2c0,0.7,0.3,0.9,0.9,1.1c1.4,0.3,4.6,1.4,12.8,1.4C57.2,117.7,57.2,101.5,57.1,86.4z"/>
		</g>
	</g>
</g>
<g class="st1">
	<path class="st2" d="M152.1,94.5c-1.4,0-2-0.6-2-1.7V26.5c0-1.1,0.7-1.7,2-1.7h8.8c1.4,0,2,0.6,2,1.7v66.2c0,1.2-0.7,1.8-2,1.8
		H152.1z"/>
	<path class="st2" d="M237.3,94.5H229c-1.3,0-1.9-0.6-1.9-1.7v-36c0-0.4-0.2-0.4-0.6,0l-4.6,12.3l-8.2,21.4c-0.3,0.6-0.6,1.1-1,1.5
		c-0.4,0.4-0.9,0.6-1.7,0.6h-5.2c-0.8,0-1.4-0.1-1.8-0.2c-0.5-0.2-0.9-0.6-1.2-1.5l-8-21.1L190.1,57c-0.1-0.1-0.2-0.1-0.3-0.2
		c-0.1,0-0.2,0-0.2,0.2v35.8c0,1.1-0.7,1.7-2,1.7h-8.2c-1.4,0-2-0.6-2-1.9V27.1c0-1.5,0.8-2.3,2.4-2.3h7c0.9,0,1.6,0.1,2.1,0.2
		c0.5,0.2,1,0.7,1.4,1.7c0.2,0.6,0.7,1.7,1.3,3.3c0.6,1.6,1.4,3.5,2.2,5.6c0.8,2.1,1.7,4.4,2.7,6.8c0.9,2.4,1.8,4.7,2.6,6.8
		c0.8,2.1,1.5,4,2.1,5.6c0.6,1.6,1.1,2.7,1.3,3.3l5.5,14.8c0.3,0.8,0.6,0.8,1,0c0.1-0.5,0.5-1.5,1-2.9c0.5-1.4,1.1-2.9,1.7-4.5
		c0.6-1.6,1.2-3.1,1.7-4.5c0.5-1.4,0.9-2.4,1.1-2.9l12.2-31.5c0.6-1.3,1.8-1.9,3.5-1.9h6.7c1.6,0,2.4,0.8,2.4,2.3v65.5
		C239.3,93.9,238.7,94.5,237.3,94.5z"/>
	<path class="st2" d="M311.4,94.5h-8.3c-1.3,0-1.9-0.6-1.9-1.7v-36c0-0.4-0.2-0.4-0.6,0l-4.6,12.3l-8.2,21.4c-0.3,0.6-0.6,1.1-1,1.5
		c-0.4,0.4-0.9,0.6-1.7,0.6h-5.2c-0.8,0-1.4-0.1-1.8-0.2c-0.5-0.2-0.9-0.6-1.2-1.5l-8-21.1L264.2,57c-0.1-0.1-0.2-0.1-0.3-0.2
		c-0.1,0-0.2,0-0.2,0.2v35.8c0,1.1-0.7,1.7-2,1.7h-8.2c-1.4,0-2-0.6-2-1.9V27.1c0-1.5,0.8-2.3,2.4-2.3h7c0.9,0,1.6,0.1,2.1,0.2
		c0.5,0.2,1,0.7,1.4,1.7c0.2,0.6,0.7,1.7,1.3,3.3c0.6,1.6,1.4,3.5,2.2,5.6c0.8,2.1,1.7,4.4,2.7,6.8c0.9,2.4,1.8,4.7,2.6,6.8
		c0.8,2.1,1.5,4,2.1,5.6c0.6,1.6,1.1,2.7,1.3,3.3l5.5,14.8c0.3,0.8,0.6,0.8,1,0c0.1-0.5,0.5-1.5,1-2.9c0.5-1.4,1.1-2.9,1.7-4.5
		c0.6-1.6,1.2-3.1,1.7-4.5c0.5-1.4,0.9-2.4,1.1-2.9l12.2-31.5c0.6-1.3,1.8-1.9,3.5-1.9h6.7c1.6,0,2.4,0.8,2.4,2.3v65.5
		C313.4,93.9,312.8,94.5,311.4,94.5z"/>
	<path class="st2" d="M372.4,74c0,3.2-0.6,6-1.8,8.6c-1.2,2.6-2.8,4.7-4.8,6.5c-2,1.8-4.5,3.1-7.3,4.1c-2.8,0.9-5.9,1.4-9.2,1.4
		c-3.3,0-6.4-0.5-9.2-1.4c-2.8-0.9-5.3-2.3-7.3-4c-2.1-1.7-3.7-3.9-4.9-6.4c-1.2-2.6-1.8-5.5-1.8-8.7V45.5c0-3.2,0.6-6,1.8-8.6
		c1.2-2.6,2.8-4.7,4.9-6.6c2.1-1.8,4.5-3.2,7.3-4.1c2.8-0.9,5.9-1.4,9.2-1.4c3.2,0,6.3,0.5,9,1.4c2.8,0.9,5.2,2.3,7.3,4.1
		c2.1,1.8,3.8,3.9,5,6.5c1.2,2.6,1.8,5.5,1.8,8.7V74z M359.5,45.6c0-2.6-0.8-4.9-2.5-6.7c-1.7-1.8-4.2-2.7-7.6-2.7s-6,0.9-7.8,2.7
		c-1.8,1.8-2.7,4-2.7,6.7v28.3c0,2.6,0.9,4.8,2.7,6.6c1.8,1.8,4.3,2.7,7.7,2.7c3.2,0,5.7-0.9,7.5-2.7c1.8-1.8,2.8-4,2.8-6.6V45.6z"
		/>
	<path class="st2" d="M410.6,24.8c6.9,0,12.2,1.8,15.9,5.3c3.8,3.5,5.6,8.5,5.6,14.9c0,4-1,7.7-3,11c-2,3.4-4.3,6.2-6.9,8.6
		c-0.5,0.5-0.5,1.1-0.2,1.7c0,0.1,0.3,0.8,1,2.3c0.7,1.4,1.6,3.3,2.7,5.7c1.1,2.4,2.4,5.1,3.8,8.2c1.4,3.1,2.9,6.3,4.5,9.5
		c0.4,0.8,0.4,1.4,0.1,1.8c-0.3,0.5-0.9,0.7-1.6,0.7h-8.6c-1.5,0-2.5-0.2-3-0.7c-0.5-0.5-0.9-1.1-1.3-1.8l-10.4-23.4
		c-0.2-0.7-0.6-1-1.5-1h-7.5c-0.7,0-1,0.4-1,1.2v23.8c0,1.2-0.7,1.8-2.1,1.8h-8.6c-1.4,0-2-0.6-2-1.7V26.7c0-1.3,0.6-1.9,1.8-1.9
		H410.6z M411.6,56.5c0.4,0,0.8-0.1,1.2-0.2c0.5-0.2,0.8-0.3,1-0.5c1.8-1.4,3.1-3.1,4-5c0.9-1.9,1.3-3.6,1.3-5
		c0-2.8-0.8-5.1-2.3-6.9c-1.5-1.8-4-2.8-7.3-2.8h-8.7c-0.7,0-1.1,0.1-1.4,0.4c-0.2,0.3-0.3,0.7-0.3,1.3v17.2c0,0.5,0.1,0.9,0.3,1.2
		c0.2,0.3,0.6,0.4,1.3,0.4H411.6z"/>
	<path class="st2" d="M484.6,35.4c-0.2,0.4-0.7,0.6-1.4,0.6h-13.3c-1.2,0-1.8,0.5-1.8,1.5L468,92.7c0,1.2-0.7,1.8-2,1.8h-8.7
		c-1.4,0-2-0.6-2-1.7l0.1-55.2c0-0.5-0.1-0.9-0.3-1.2c-0.2-0.3-0.7-0.4-1.4-0.4H441c-1.3,0-1.9-0.7-1.9-2v-7.2
		c0-1.3,0.6-1.9,1.9-1.9h42.2c1.1,0,1.7,0.6,1.7,1.8V34C484.9,34.6,484.8,35.1,484.6,35.4z"/>
	<path class="st2" d="M535.1,92.2c0.2,0.4,0.2,0.9,0.1,1.5c-0.1,0.6-0.7,0.9-1.8,0.9h-9.2c-1.2,0-2-0.5-2.3-1.5l-2.6-11.3
		c-0.2-0.6-0.3-1-0.5-1.2c-0.2-0.2-0.5-0.3-1-0.3h-16.7c-0.6,0-1,0.2-1.1,0.5c-0.2,0.3-0.3,0.6-0.5,1c-0.2,0.6-0.3,1.4-0.6,2.4
		c-0.2,1-0.5,2.1-0.7,3.3c-0.3,1.2-0.5,2.3-0.7,3.3c-0.2,1.1-0.4,1.8-0.6,2.4c-0.2,0.5-0.4,0.9-0.8,1.1c-0.4,0.2-0.8,0.3-1.3,0.3
		h-8.7c-1.1,0-1.7-0.2-1.9-0.7c-0.2-0.5-0.2-1-0.1-1.6l16.5-65.9c0.4-1.1,1.2-1.6,2.4-1.6H516c0.5,0,1,0.1,1.4,0.2
		c0.4,0.1,0.6,0.5,0.8,1.3L535.1,92.2z M512.5,52.7l-2.7-13c-0.1-0.3-0.2-0.5-0.4-0.5c-0.2,0-0.3,0.1-0.4,0.5l-2.6,12.8l-3.5,16.2
		c-0.1,0.4-0.1,0.6,0,0.8c0.1,0.2,0.3,0.2,0.8,0.2h11.7c0.8,0,1-0.4,0.7-1.1L512.5,52.7z"/>
	<path class="st2" d="M584.2,83.1c1.2,0,1.8,0.6,1.8,1.9v7.5c0,1.4-0.6,2-1.7,2h-38c-1.4,0-2-0.6-2-1.9V26.5c0-1.1,0.6-1.7,1.9-1.7
		h8.8c1.4,0,2,0.5,2,1.6v55c0,0.6,0.1,1,0.2,1.3c0.1,0.3,0.5,0.4,1.3,0.4H584.2z"/>
</g>
</svg>
