<?xml version="1.0" encoding="utf-8"?>
<!-- Generator: Adobe Illustrator 22.1.0, SVG Export Plug-In . SVG Version: 6.00 Build 0)  -->
<svg version="1.1" id="Layer_1" xmlns="http://www.w3.org/2000/svg" xmlns:xlink="http://www.w3.org/1999/xlink" x="0px" y="0px"
	 viewBox="0 0 32 32" style="enable-background:new 0 0 32 32;" xml:space="preserve">
<style type="text/css">
	.st0{fill:url(#SVGID_1_);}
</style>
<linearGradient id="SVGID_1_" gradientUnits="userSpaceOnUse" x1="16.0301" y1="31.8641" x2="16.0301" y2="4.781031e-02">
	<stop  offset="0" style="stop-color:#CEE83D"/>
	<stop  offset="0.5154" style="stop-color:#D1EA41"/>
	<stop  offset="1" style="stop-color:#F2FF61"/>
</linearGradient>
<path class="st0" d="M31.2,12.3l-2.4-0.5c-0.2-0.7-0.5-1.3-0.8-1.9l1.4-2.1c0.2-0.4,0.2-0.9-0.1-1.2l-3.8-3.8
	c-0.3-0.3-0.8-0.4-1.2-0.1L22.1,4c-0.6-0.3-1.2-0.6-1.9-0.8l-0.5-2.4C19.6,0.4,19.2,0,18.7,0h-5.4c-0.4,0-0.8,0.3-0.9,0.7l-0.5,2.4
	C11.2,3.5,10.6,3.7,10,4L7.9,2.7C7.5,2.4,7,2.5,6.7,2.8L2.9,6.6C2.6,6.9,2.5,7.4,2.7,7.8l1.4,2.1c-0.3,0.6-0.6,1.2-0.8,1.9l-2.4,0.5
	c-0.4,0.1-0.7,0.5-0.7,0.9v5.4c0,0.4,0.3,0.8,0.7,0.9l2.4,0.5c0.2,0.7,0.5,1.3,0.8,1.9l-1.4,2.1c-0.2,0.4-0.2,0.9,0.1,1.2l3.8,3.8
	c0.3,0.3,0.8,0.4,1.2,0.1l2.1-1.4c0.6,0.3,1.2,0.6,1.9,0.8l0.5,2.4c0.1,0.4,0.5,0.7,0.9,0.7h5.4c0.4,0,0.8-0.3,0.9-0.7l0.5-2.4
	c0.7-0.2,1.3-0.5,1.9-0.8l2.1,1.4c0.4,0.2,0.9,0.2,1.2-0.1l3.8-3.8c0.3-0.3,0.4-0.8,0.1-1.2L28,22c0.3-0.6,0.6-1.2,0.8-1.9l2.4-0.5
	c0.4-0.1,0.7-0.5,0.7-0.9v-5.4C31.9,12.8,31.6,12.4,31.2,12.3z M21.7,16c0,3.1-2.6,5.7-5.7,5.7c-3.1,0-5.7-2.6-5.7-5.7
	c0-3.1,2.6-5.7,5.7-5.7C19.2,10.3,21.7,12.8,21.7,16z"/>
</svg>
